<svg xmlns="http://www.w3.org/2000/svg" width="640" height="280" viewBox="0 0 640 280" fill="none">
  <rect width="640" height="280" rx="24" fill="url(#bg)"/>
  <path d="M208 84c-24 0-42 18-42 41 0 44 60 80 112 112 52-32 112-68 112-112 0-23-18-41-42-41-18 0-34 9-44 22-10-13-26-22-44-22z" fill="#FF8F6D" fill-opacity=".3"/>
  <rect x="88" y="186" width="208" height="44" rx="12" fill="#fff" fill-opacity=".09"/>
  <rect x="344" y="186" width="208" height="44" rx="12" fill="#fff" fill-opacity=".09"/>
  <circle cx="108" cy="208" r="10" fill="#84E0B3"/>
  <circle cx="365" cy="208" r="10" fill="#7EA6FF"/>
  <defs>
    <linearGradient id="bg" x1="0" y1="0" x2="640" y2="280" gradientUnits="userSpaceOnUse">
      <stop stop-color="#1D1A40"/>
      <stop offset="1" stop-color="#0D1230"/>
    </linearGradient>
  </defs>
</svg>
